<mxfile host="app.diagrams.net" modified="2022-03-10T16:53:34.989Z" agent="5.0 (Windows NT 10.0; Win64; x64) AppleWebKit/537.36 (KHTML, like Gecko) Chrome/99.0.4844.51 Safari/537.36" etag="JYmcVFTBeUeOWH4W5jlV" version="17.0.0" type="github">
  <diagram name="Page-1" id="90a13364-a465-7bf4-72fc-28e22215d7a0">
    <mxGraphModel dx="778" dy="769" grid="1" gridSize="10" guides="1" tooltips="1" connect="1" arrows="1" fold="1" page="1" pageScale="1.5" pageWidth="1169" pageHeight="826" background="none" math="0" shadow="0">
      <root>
        <mxCell id="0" style=";html=1;" />
        <mxCell id="1" style=";html=1;" parent="0" />
        <mxCell id="uKb51nX8jyAxLlPutz8k-1" value="Engineering BOM" style="whiteSpace=wrap;html=1;shadow=0;fontSize=14;fillColor=none;strokeColor=#666666;verticalAlign=top;" parent="1" vertex="1">
          <mxGeometry x="80" y="40" width="170" height="310" as="geometry" />
        </mxCell>
        <mxCell id="uKb51nX8jyAxLlPutz8k-6" style="edgeStyle=orthogonalEdgeStyle;rounded=0;orthogonalLoop=1;jettySize=auto;html=1;exitX=0.25;exitY=1;exitDx=0;exitDy=0;entryX=0;entryY=0.5;entryDx=0;entryDy=0;endArrow=none;endFill=0;" parent="1" source="uKb51nX8jyAxLlPutz8k-2" target="uKb51nX8jyAxLlPutz8k-3" edge="1">
          <mxGeometry relative="1" as="geometry">
            <mxPoint x="138" y="130" as="targetPoint" />
            <Array as="points">
              <mxPoint x="116" y="135" />
            </Array>
          </mxGeometry>
        </mxCell>
        <mxCell id="uKb51nX8jyAxLlPutz8k-2" value="Assembly A" style="rounded=1;whiteSpace=wrap;html=1;verticalAlign=middle;" parent="1" vertex="1">
          <mxGeometry x="93" y="80" width="90" height="30" as="geometry" />
        </mxCell>
        <mxCell id="uKb51nX8jyAxLlPutz8k-3" value="P1" style="rounded=1;whiteSpace=wrap;html=1;verticalAlign=middle;" parent="1" vertex="1">
          <mxGeometry x="133" y="120" width="50" height="30" as="geometry" />
        </mxCell>
        <mxCell id="uKb51nX8jyAxLlPutz8k-4" value="P2" style="rounded=1;whiteSpace=wrap;html=1;verticalAlign=middle;" parent="1" vertex="1">
          <mxGeometry x="133" y="160" width="50" height="30" as="geometry" />
        </mxCell>
        <mxCell id="uKb51nX8jyAxLlPutz8k-8" style="edgeStyle=orthogonalEdgeStyle;rounded=0;orthogonalLoop=1;jettySize=auto;html=1;exitX=0.25;exitY=1;exitDx=0;exitDy=0;entryX=0;entryY=0.5;entryDx=0;entryDy=0;endArrow=none;endFill=0;" parent="1" source="uKb51nX8jyAxLlPutz8k-2" target="uKb51nX8jyAxLlPutz8k-4" edge="1">
          <mxGeometry relative="1" as="geometry">
            <mxPoint x="125.5" y="120" as="sourcePoint" />
            <mxPoint x="143" y="145" as="targetPoint" />
            <Array as="points">
              <mxPoint x="116" y="180" />
              <mxPoint x="133" y="180" />
            </Array>
          </mxGeometry>
        </mxCell>
        <mxCell id="uKb51nX8jyAxLlPutz8k-9" value="Assembly B" style="rounded=1;whiteSpace=wrap;html=1;verticalAlign=middle;" parent="1" vertex="1">
          <mxGeometry x="120" y="211" width="90" height="30" as="geometry" />
        </mxCell>
        <mxCell id="uKb51nX8jyAxLlPutz8k-10" value="P3" style="rounded=1;whiteSpace=wrap;html=1;verticalAlign=middle;" parent="1" vertex="1">
          <mxGeometry x="160" y="251" width="50" height="30" as="geometry" />
        </mxCell>
        <mxCell id="uKb51nX8jyAxLlPutz8k-11" value="P4" style="rounded=1;whiteSpace=wrap;html=1;verticalAlign=middle;" parent="1" vertex="1">
          <mxGeometry x="160" y="291" width="50" height="30" as="geometry" />
        </mxCell>
        <mxCell id="uKb51nX8jyAxLlPutz8k-12" style="edgeStyle=orthogonalEdgeStyle;rounded=0;orthogonalLoop=1;jettySize=auto;html=1;entryX=0;entryY=0.5;entryDx=0;entryDy=0;endArrow=none;endFill=0;" parent="1" target="uKb51nX8jyAxLlPutz8k-11" edge="1">
          <mxGeometry relative="1" as="geometry">
            <mxPoint x="133" y="241" as="sourcePoint" />
            <mxPoint x="170" y="276" as="targetPoint" />
            <Array as="points">
              <mxPoint x="143" y="311" />
              <mxPoint x="160" y="311" />
            </Array>
          </mxGeometry>
        </mxCell>
        <mxCell id="uKb51nX8jyAxLlPutz8k-13" style="edgeStyle=orthogonalEdgeStyle;rounded=0;orthogonalLoop=1;jettySize=auto;html=1;exitX=0.25;exitY=1;exitDx=0;exitDy=0;endArrow=none;endFill=0;" parent="1" source="uKb51nX8jyAxLlPutz8k-9" target="uKb51nX8jyAxLlPutz8k-10" edge="1">
          <mxGeometry relative="1" as="geometry">
            <mxPoint x="140.5" y="241" as="sourcePoint" />
            <mxPoint x="158" y="266" as="targetPoint" />
            <Array as="points">
              <mxPoint x="143" y="266" />
            </Array>
          </mxGeometry>
        </mxCell>
        <mxCell id="uKb51nX8jyAxLlPutz8k-14" value="Processing BOM" style="whiteSpace=wrap;html=1;shadow=0;fontSize=15;fillColor=none;strokeColor=#666666;verticalAlign=top;" parent="1" vertex="1">
          <mxGeometry x="333" y="40" width="170" height="310" as="geometry" />
        </mxCell>
        <mxCell id="uKb51nX8jyAxLlPutz8k-15" style="edgeStyle=orthogonalEdgeStyle;rounded=0;orthogonalLoop=1;jettySize=auto;html=1;exitX=0.25;exitY=1;exitDx=0;exitDy=0;entryX=0;entryY=0.5;entryDx=0;entryDy=0;endArrow=none;endFill=0;" parent="1" source="uKb51nX8jyAxLlPutz8k-16" target="uKb51nX8jyAxLlPutz8k-17" edge="1">
          <mxGeometry relative="1" as="geometry">
            <mxPoint x="391" y="130" as="targetPoint" />
            <Array as="points">
              <mxPoint x="369" y="135" />
            </Array>
          </mxGeometry>
        </mxCell>
        <mxCell id="uKb51nX8jyAxLlPutz8k-16" value="Assembly&amp;nbsp;&lt;span style=&quot;color: rgb(36 , 41 , 46) ; font-family: &amp;#34;katex_math&amp;#34; ; font-style: italic ; text-align: left&quot;&gt;&lt;font style=&quot;font-size: 12px&quot;&gt;α&lt;/font&gt;&lt;/span&gt;" style="rounded=1;whiteSpace=wrap;html=1;verticalAlign=middle;" parent="1" vertex="1">
          <mxGeometry x="346" y="80" width="90" height="30" as="geometry" />
        </mxCell>
        <mxCell id="uKb51nX8jyAxLlPutz8k-17" value="A1" style="rounded=1;whiteSpace=wrap;html=1;verticalAlign=middle;" parent="1" vertex="1">
          <mxGeometry x="386" y="120" width="50" height="30" as="geometry" />
        </mxCell>
        <mxCell id="uKb51nX8jyAxLlPutz8k-18" value="A2" style="rounded=1;whiteSpace=wrap;html=1;verticalAlign=middle;" parent="1" vertex="1">
          <mxGeometry x="413" y="200" width="50" height="30" as="geometry" />
        </mxCell>
        <mxCell id="uKb51nX8jyAxLlPutz8k-20" value="Assembly&amp;nbsp;&lt;span style=&quot;color: rgb(36 , 41 , 46) ; font-family: &amp;#34;katex_math&amp;#34; ; font-style: italic ; text-align: left&quot;&gt;&lt;font style=&quot;font-size: 12px&quot;&gt;β&lt;/font&gt;&lt;/span&gt;" style="rounded=1;whiteSpace=wrap;html=1;verticalAlign=middle;" parent="1" vertex="1">
          <mxGeometry x="373" y="160" width="90" height="30" as="geometry" />
        </mxCell>
        <mxCell id="uKb51nX8jyAxLlPutz8k-21" value="A3" style="rounded=1;whiteSpace=wrap;html=1;verticalAlign=middle;" parent="1" vertex="1">
          <mxGeometry x="413" y="249" width="50" height="30" as="geometry" />
        </mxCell>
        <mxCell id="uKb51nX8jyAxLlPutz8k-22" value="A4" style="rounded=1;whiteSpace=wrap;html=1;verticalAlign=middle;" parent="1" vertex="1">
          <mxGeometry x="413" y="291" width="50" height="30" as="geometry" />
        </mxCell>
        <mxCell id="uKb51nX8jyAxLlPutz8k-23" style="edgeStyle=orthogonalEdgeStyle;rounded=0;orthogonalLoop=1;jettySize=auto;html=1;entryX=0;entryY=0.5;entryDx=0;entryDy=0;endArrow=none;endFill=0;" parent="1" target="uKb51nX8jyAxLlPutz8k-22" edge="1">
          <mxGeometry relative="1" as="geometry">
            <mxPoint x="396" y="190" as="sourcePoint" />
            <mxPoint x="423" y="276" as="targetPoint" />
            <Array as="points">
              <mxPoint x="396" y="311" />
              <mxPoint x="413" y="311" />
            </Array>
          </mxGeometry>
        </mxCell>
        <mxCell id="uKb51nX8jyAxLlPutz8k-24" style="edgeStyle=orthogonalEdgeStyle;rounded=0;orthogonalLoop=1;jettySize=auto;html=1;exitX=0.25;exitY=1;exitDx=0;exitDy=0;endArrow=none;endFill=0;" parent="1" source="uKb51nX8jyAxLlPutz8k-20" target="uKb51nX8jyAxLlPutz8k-21" edge="1">
          <mxGeometry relative="1" as="geometry">
            <mxPoint x="393.5" y="241" as="sourcePoint" />
            <mxPoint x="411" y="266" as="targetPoint" />
            <Array as="points">
              <mxPoint x="396" y="266" />
            </Array>
          </mxGeometry>
        </mxCell>
        <mxCell id="uKb51nX8jyAxLlPutz8k-27" style="edgeStyle=orthogonalEdgeStyle;rounded=0;orthogonalLoop=1;jettySize=auto;html=1;exitX=0.25;exitY=1;exitDx=0;exitDy=0;entryX=0;entryY=0.5;entryDx=0;entryDy=0;endArrow=none;endFill=0;" parent="1" edge="1">
          <mxGeometry relative="1" as="geometry">
            <mxPoint x="395.5" y="194" as="sourcePoint" />
            <mxPoint x="413" y="219" as="targetPoint" />
            <Array as="points">
              <mxPoint x="396" y="219" />
            </Array>
          </mxGeometry>
        </mxCell>
        <mxCell id="uKb51nX8jyAxLlPutz8k-39" value="Manufacturing BOM" style="whiteSpace=wrap;html=1;shadow=0;fontSize=14;fillColor=none;strokeColor=#666666;verticalAlign=top;" parent="1" vertex="1">
          <mxGeometry x="583" y="40" width="170" height="310" as="geometry" />
        </mxCell>
        <mxCell id="uKb51nX8jyAxLlPutz8k-40" style="edgeStyle=orthogonalEdgeStyle;rounded=0;orthogonalLoop=1;jettySize=auto;html=1;exitX=0.25;exitY=1;exitDx=0;exitDy=0;entryX=0;entryY=0.5;entryDx=0;entryDy=0;endArrow=none;endFill=0;" parent="1" source="uKb51nX8jyAxLlPutz8k-41" target="uKb51nX8jyAxLlPutz8k-42" edge="1">
          <mxGeometry relative="1" as="geometry">
            <mxPoint x="641" y="130" as="targetPoint" />
            <Array as="points">
              <mxPoint x="619" y="135" />
            </Array>
          </mxGeometry>
        </mxCell>
        <mxCell id="uKb51nX8jyAxLlPutz8k-41" value="Assembly 1" style="rounded=1;whiteSpace=wrap;html=1;verticalAlign=middle;" parent="1" vertex="1">
          <mxGeometry x="596" y="80" width="90" height="30" as="geometry" />
        </mxCell>
        <mxCell id="uKb51nX8jyAxLlPutz8k-42" value="C3" style="rounded=1;whiteSpace=wrap;html=1;verticalAlign=middle;" parent="1" vertex="1">
          <mxGeometry x="636" y="120" width="50" height="30" as="geometry" />
        </mxCell>
        <mxCell id="uKb51nX8jyAxLlPutz8k-43" value="C2" style="rounded=1;whiteSpace=wrap;html=1;verticalAlign=middle;" parent="1" vertex="1">
          <mxGeometry x="636" y="160" width="50" height="30" as="geometry" />
        </mxCell>
        <mxCell id="uKb51nX8jyAxLlPutz8k-44" style="edgeStyle=orthogonalEdgeStyle;rounded=0;orthogonalLoop=1;jettySize=auto;html=1;exitX=0.25;exitY=1;exitDx=0;exitDy=0;entryX=0;entryY=0.5;entryDx=0;entryDy=0;endArrow=none;endFill=0;" parent="1" source="uKb51nX8jyAxLlPutz8k-41" target="uKb51nX8jyAxLlPutz8k-43" edge="1">
          <mxGeometry relative="1" as="geometry">
            <mxPoint x="628.5" y="120" as="sourcePoint" />
            <mxPoint x="646" y="145" as="targetPoint" />
            <Array as="points">
              <mxPoint x="619" y="180" />
              <mxPoint x="636" y="180" />
            </Array>
          </mxGeometry>
        </mxCell>
        <mxCell id="uKb51nX8jyAxLlPutz8k-45" value="Assembly 2" style="rounded=1;whiteSpace=wrap;html=1;verticalAlign=middle;" parent="1" vertex="1">
          <mxGeometry x="623" y="211" width="90" height="30" as="geometry" />
        </mxCell>
        <mxCell id="uKb51nX8jyAxLlPutz8k-46" value="C1" style="rounded=1;whiteSpace=wrap;html=1;verticalAlign=middle;" parent="1" vertex="1">
          <mxGeometry x="663" y="251" width="50" height="30" as="geometry" />
        </mxCell>
        <mxCell id="uKb51nX8jyAxLlPutz8k-47" value="C7" style="rounded=1;whiteSpace=wrap;html=1;verticalAlign=middle;" parent="1" vertex="1">
          <mxGeometry x="663" y="291" width="50" height="30" as="geometry" />
        </mxCell>
        <mxCell id="uKb51nX8jyAxLlPutz8k-48" style="edgeStyle=orthogonalEdgeStyle;rounded=0;orthogonalLoop=1;jettySize=auto;html=1;entryX=0;entryY=0.5;entryDx=0;entryDy=0;endArrow=none;endFill=0;" parent="1" target="uKb51nX8jyAxLlPutz8k-47" edge="1">
          <mxGeometry relative="1" as="geometry">
            <mxPoint x="636" y="241" as="sourcePoint" />
            <mxPoint x="673" y="276" as="targetPoint" />
            <Array as="points">
              <mxPoint x="646" y="311" />
              <mxPoint x="663" y="311" />
            </Array>
          </mxGeometry>
        </mxCell>
        <mxCell id="uKb51nX8jyAxLlPutz8k-49" style="edgeStyle=orthogonalEdgeStyle;rounded=0;orthogonalLoop=1;jettySize=auto;html=1;exitX=0.25;exitY=1;exitDx=0;exitDy=0;endArrow=none;endFill=0;" parent="1" source="uKb51nX8jyAxLlPutz8k-45" target="uKb51nX8jyAxLlPutz8k-46" edge="1">
          <mxGeometry relative="1" as="geometry">
            <mxPoint x="643.5" y="241" as="sourcePoint" />
            <mxPoint x="661" y="266" as="targetPoint" />
            <Array as="points">
              <mxPoint x="646" y="266" />
            </Array>
          </mxGeometry>
        </mxCell>
        <mxCell id="uKb51nX8jyAxLlPutz8k-51" value="" style="curved=1;endArrow=none;html=1;entryX=0;entryY=0.5;entryDx=0;entryDy=0;exitX=1;exitY=0.5;exitDx=0;exitDy=0;startArrow=none;startFill=0;endFill=0;dashed=1;" parent="1" source="uKb51nX8jyAxLlPutz8k-9" target="uKb51nX8jyAxLlPutz8k-16" edge="1">
          <mxGeometry width="50" height="50" relative="1" as="geometry">
            <mxPoint x="274" y="180" as="sourcePoint" />
            <mxPoint x="324" y="130" as="targetPoint" />
            <Array as="points">
              <mxPoint x="300" y="180" />
              <mxPoint x="280" y="95" />
            </Array>
          </mxGeometry>
        </mxCell>
        <mxCell id="uKb51nX8jyAxLlPutz8k-52" value="" style="curved=1;endArrow=none;html=1;startArrow=none;startFill=0;endFill=0;dashed=1;" parent="1" target="uKb51nX8jyAxLlPutz8k-3" edge="1">
          <mxGeometry width="50" height="50" relative="1" as="geometry">
            <mxPoint x="413" y="220" as="sourcePoint" />
            <mxPoint x="333" y="130" as="targetPoint" />
            <Array as="points">
              <mxPoint x="310" y="220" />
              <mxPoint x="300" y="120" />
            </Array>
          </mxGeometry>
        </mxCell>
        <mxCell id="uKb51nX8jyAxLlPutz8k-54" value="" style="curved=1;endArrow=none;html=1;startArrow=none;startFill=0;entryX=1;entryY=0.5;entryDx=0;entryDy=0;endFill=0;dashed=1;" parent="1" target="uKb51nX8jyAxLlPutz8k-11" edge="1">
          <mxGeometry width="50" height="50" relative="1" as="geometry">
            <mxPoint x="413" y="310" as="sourcePoint" />
            <mxPoint x="193" y="248" as="targetPoint" />
            <Array as="points">
              <mxPoint x="293" y="324" />
              <mxPoint x="293" y="290" />
            </Array>
          </mxGeometry>
        </mxCell>
        <mxCell id="uKb51nX8jyAxLlPutz8k-55" value="" style="curved=1;endArrow=none;html=1;startArrow=none;startFill=0;entryX=1;entryY=0.5;entryDx=0;entryDy=0;exitX=0;exitY=0.5;exitDx=0;exitDy=0;endFill=0;dashed=1;" parent="1" source="uKb51nX8jyAxLlPutz8k-47" target="uKb51nX8jyAxLlPutz8k-17" edge="1">
          <mxGeometry width="50" height="50" relative="1" as="geometry">
            <mxPoint x="658" y="230" as="sourcePoint" />
            <mxPoint x="428" y="144" as="targetPoint" />
            <Array as="points">
              <mxPoint x="540" y="280" />
              <mxPoint x="530" y="120" />
            </Array>
          </mxGeometry>
        </mxCell>
        <mxCell id="uKb51nX8jyAxLlPutz8k-56" value="" style="curved=1;endArrow=none;html=1;entryX=0;entryY=0.5;entryDx=0;entryDy=0;exitX=1;exitY=0.5;exitDx=0;exitDy=0;startArrow=none;startFill=0;endFill=0;dashed=1;" parent="1" source="uKb51nX8jyAxLlPutz8k-20" target="uKb51nX8jyAxLlPutz8k-41" edge="1">
          <mxGeometry width="50" height="50" relative="1" as="geometry">
            <mxPoint x="454" y="236" as="sourcePoint" />
            <mxPoint x="590" y="105" as="targetPoint" />
            <Array as="points">
              <mxPoint x="540" y="170" />
              <mxPoint x="540" y="90" />
            </Array>
          </mxGeometry>
        </mxCell>
        <mxCell id="uKb51nX8jyAxLlPutz8k-59" value="" style="shape=doubleArrow;whiteSpace=wrap;html=1;verticalAlign=middle;dashed=1;dashPattern=1 1;" parent="1" vertex="1">
          <mxGeometry x="256" y="177" width="70" height="49" as="geometry" />
        </mxCell>
        <mxCell id="uKb51nX8jyAxLlPutz8k-62" value="" style="shape=doubleArrow;whiteSpace=wrap;html=1;verticalAlign=middle;dashed=1;dashPattern=1 1;" parent="1" vertex="1">
          <mxGeometry x="508" y="177" width="70" height="49" as="geometry" />
        </mxCell>
      </root>
    </mxGraphModel>
  </diagram>
</mxfile>
